<?xml version="1.0" encoding="UTF-8" standalone="no"?>
<svg
   height="841mm"
   width="1189mm"
   viewBox="-263.4 -126 8548.8164 3003.7606"
   version="1.1"
   id="svg105"
   sodipodi:docname="MotoGuzziLogo.svg"
   inkscape:version="1.1.2 (0a00cf5339, 2022-02-04)"
   xmlns:inkscape="http://www.inkscape.org/namespaces/inkscape"
   xmlns:sodipodi="http://sodipodi.sourceforge.net/DTD/sodipodi-0.dtd"
   xmlns="http://www.w3.org/2000/svg"
   xmlns:svg="http://www.w3.org/2000/svg">
  <defs
     id="defs109" />
  <sodipodi:namedview
     id="namedview107"
     pagecolor="#ffffff"
     bordercolor="#666666"
     borderopacity="1.0"
     inkscape:pageshadow="2"
     inkscape:pageopacity="0.0"
     inkscape:pagecheckerboard="0"
     showgrid="false"
     inkscape:zoom="0.35047067"
     inkscape:cx="2246.9783"
     inkscape:cy="1589.2913"
     inkscape:window-width="2560"
     inkscape:window-height="1371"
     inkscape:window-x="0"
     inkscape:window-y="0"
     inkscape:window-maximized="1"
     inkscape:current-layer="svg105"
     inkscape:document-units="mm"
     units="mm" />
  <path
     d="M 0,0 H 5547.639 V 1573.6133 H 0 Z"
     fill="#fbfbfb"
     id="path83"
     style="stroke-width:3.1407" />
  <path
     d="m 5422.6142,42.763519 c -26.3948,49.153479 -75.9552,80.611691 -125.9018,101.993461 -49.1392,20.74978 -101.262,33.5648 -153.6303,42.90395 1.3688,12.85012 -4.0012,25.84069 -14.9173,33.00305 -27.8689,19.83694 -62.2664,26.89397 -95.084,33.951 -77.1837,14.39494 -156.1224,18.43257 -234.4292,14.9918 6.1423,8.98807 11.4423,22.68084 1.8602,31.388 -14.5661,11.37554 -33.9061,13.0257 -51.5959,15.02692 -65.7766,4.59936 -131.588,-3.19497 -196.8027,-11.02441 -8.2833,19.3454 -28.8515,28.68455 -48.5423,31.49333 -31.3087,4.56425 -63.1792,2.38748 -94.4874,-0.91285 0.8071,8.7423 3.5449,19.38049 -3.8262,26.22687 -10.3545,10.1116 -25.517,12.74481 -39.2763,14.32474 -28.9218,2.00124 -58.4757,-0.28089 -85.9233,-10.00622 3.159,8.28585 8.0376,18.60809 2.2113,26.92908 -7.792,11.3404 -22.7793,13.93851 -35.4151,16.00997 -23.3763,2.28213 -47.1385,1.22884 -70.0936,-3.72161 5.3701,8.81249 12.3901,18.71341 9.2662,29.66761 -3.3696,12.25327 -16.3914,17.73036 -27.518,20.85512 -26.149,6.24951 -53.6318,4.03762 -79.7107,-1.43951 5.686,9.54984 11.5124,21.52223 6.1423,32.58174 -6.5635,10.88401 -19.094,16.15043 -31.0278,18.53789 -26.6405,5.37178 -54.6499,3.26519 -80.4481,-5.09088 5.5812,10.252 12.8465,21.2413 9.9333,33.5648 -3.58,12.49901 -16.4617,19.16984 -28.1849,22.18926 -27.4127,6.81128 -56.3347,3.51098 -83.1854,-4.03761 5.6158,9.69027 12.0741,22.04884 5.9317,33.03816 -7.055,9.79558 -19.4452,13.34166 -30.7822,14.9918 -30.3258,3.68651 -61.2133,-2.17677 -89.4335,-13.27142 2.8083,11.72662 6.5288,24.89272 0.1049,36.16292 -6.9846,11.37552 -21.1997,15.06203 -33.66,15.86954 -28.5357,1.15861 -57.2471,-7.86457 -80.6935,-23.97988 -0.071,9.72535 0.5613,20.7147 -6.5987,28.36858 -9.8279,10.60309 -25.6225,11.41061 -39.0306,10.11155 -22.4286,-2.2821 -43.4882,-11.7968 -61.4241,-25.17358 -3.3695,10.46267 -11.3721,19.97736 -22.8144,21.41686 -28.0447,3.93227 -56.1241,-9.72534 -75.0778,-29.84318 -2.4922,9.19872 -9.2661,18.2219 -19.445,19.02944 -25.6228,2.07145 -49.0691,-13.65766 -65.7413,-31.73911 -3.4749,7.82944 -9.5471,15.55358 -18.8133,16.04509 -20.0418,1.68525 -39.3113,-9.86579 -50.4378,-26.05132 -7.4059,11.27018 -19.6907,19.76668 -33.5901,19.24007 -19.1994,0.1755 -34.5379,-12.85014 -47.4546,-25.4896 -10.8107,-11.12974 -25.2013,3.05456 -31.6245,12.35859 14.7769,7.2326 31.0983,11.55107 44.4008,21.62751 17.6551,13.86832 28.0443,36.72466 25.9033,59.22996 -1.6496,26.54288 -18.427,50.10143 -40.1888,64.46126 -30.9577,21.10089 -69.3563,26.82377 -106.0352,27.70148 -6.6688,0.24567 -15.8651,5.40689 -13.4784,13.30655 5.4055,8.42634 16.1811,10.95421 23.7272,17.13348 6.9499,-6.95169 14.8471,-14.43002 25.3069,-15.02691 12.4954,-1.65012 23.9729,4.81002 33.625,12.00751 12.2498,-16.71219 36.1175,-19.97741 53.5618,-9.58491 18.2164,11.16485 35.8715,25.03313 47.3843,43.36035 18.4272,38.48021 -10.2491,84.22795 -47.1736,98.48252 -5.967,2.77361 -15.1631,1.57988 -16.4968,-5.89844 0.351,-13.20126 4.4928,-26.01618 5.7212,-39.14726 -11.1964,19.48584 -25.9386,38.62063 -46.8578,48.10019 -8.4939,4.38871 -21.3404,-1.57997 -19.5151,-12.18306 1.8252,-10.74347 5.0542,-21.20616 6.2826,-32.09014 -10.4244,17.2037 -23.727,33.38916 -41.9086,42.6582 -7.8971,3.82696 -20.6385,2.77362 -22.9549,-7.26769 -2.071,-14.04384 6.1774,-27.84195 2.2463,-41.7805 -2.2112,-5.72286 -7.6167,-9.16358 -11.7933,-13.27143 -5.8267,26.57799 -24.3942,50.06638 -49.2095,61.30139 -5.3,2.35235 -11.1965,1.54485 -16.7074,1.82582 -6.0019,-15.02697 2.457,-30.75619 3.1591,-46.13418 -10.6703,19.27523 -25.0261,37.46203 -44.6115,48.13523 -8.494,4.56442 -21.7265,1.36953 -21.8669,-9.8657 1.9305,-11.51591 5.0895,-22.8564 6.0371,-34.51272 -9.0205,17.58995 -22.3233,33.24882 -39.6273,43.18478 -7.9675,4.63456 -20.7436,4.38871 -24.6396,-5.30158 -3.4399,-15.23751 8.143,-31.35289 0.2105,-45.8882 -17.9708,-19.73164 -46.0855,-29.77297 -59.5988,-53.71775 -14.7068,18.18679 -25.6579,39.11216 -33.9412,60.95031 -4.0716,16.46642 -31.9403,15.79931 -36.5033,0.1054 -1.4741,-5.72286 -2.1058,-11.62128 -2.9133,-17.4144 -16.8125,13.62254 -33.0287,29.10585 -54.2286,35.60121 -30.045,9.90088 -66.3028,15.7993 -94.3472,-2.7035 -35.1346,10.91911 -73.2525,13.44707 -109.1241,4.95043 -13.5483,-3.44073 -29.3781,-9.12846 -33.4848,-24.15533 -41.4174,10.46261 -86.4148,15.20243 -127.5864,1.1585 -16.1107,-4.84505 -29.5889,-18.39734 -29.8345,-35.98731 -31.0279,4.31853 -63.6001,4.95049 -93.3995,-5.75796 -18.6729,-7.12725 -38.1532,-20.43381 -41.9087,-41.46445 70.1285,-50.34721 142.3982,-97.63984 214.9839,-144.33566 -7.4762,-7.68902 -6.6337,-20.08269 2.8428,-25.63001 33.1692,-23.69901 68.1282,-44.7999 102.1395,-67.27006 -47.5597,16.71217 -96.8041,35.28518 -148.1897,30.47514 -10.0033,-1.26393 -22.0074,-4.03758 -26.2895,-14.32472 -3.0888,-9.79558 2.492,-19.45073 5.721,-28.40367 -34.1514,11.09463 -69.321,21.1711 -105.4736,21.87329 -13.1972,-0.7373 -29.7993,-1.54481 -37.2405,-14.35981 -5.4754,-13.23636 3.6153,-26.19181 10.916,-36.61936 -40.891,9.47958 -82.5889,18.92408 -124.8485,16.64196 -13.4431,-1.1586 -32.081,-4.77492 -34.8188,-20.67956 -0.8073,-14.8865 9.1611,-27.3504 17.1287,-38.97169 -41.5578,5.58241 -83.5368,12.95545 -125.5857,8.98805 -12.2148,-1.65013 -28.2201,-5.40685 -31.0281,-19.62627 -1.1582,-15.97488 10.4947,-28.93032 19.34,-41.04313 -37.9075,7.93475 -76.7976,11.97236 -115.4773,9.05829 -12.7411,-1.68529 -26.1488,-3.26521 -37.1351,-10.4276 -6.7039,-4.14291 -10.9861,-12.60434 -8.2484,-20.36356 4.6331,-14.2194 17.1987,-23.55854 27.7988,-33.28392 -38.2233,6.42506 -77.0783,10.63821 -115.8632,8.04008 -12.0742,-1.75546 -26.4649,-3.40561 -34.0113,-14.25448 -5.5456,-18.36234 13.022,-31.84444 24.2186,-43.46573 -56.124,5.37176 -112.6692,12.35861 -169.0739,7.47837 -15.6543,-2.28214 -34.1868,-3.44075 -44.9623,-16.57175 -8.1783,-12.99057 2.5973,-26.75354 9.6874,-37.49707 -53.7022,3.93227 -107.5446,3.96738 -161.3519,2.84388 -59.9499,-2.5279 -120.3209,-7.58369 -178.3051,-23.97986 -29.5889,-8.60188 -59.1075,-20.22318 -83.0452,-40.13033 -3.4749,-2.91408 -7.1603,-5.65264 -11.7935,-6.21439 C 953.05442,204.86464 895.17546,185.3437 846.52773,150.37452 811.35807,125.09558 782.61166,88.370919 775.34609,44.764767 c 51.59611,41.253808 117.23202,58.387293 181.00755,70.254353 82.79966,14.78116 167.07336,18.88898 251.03086,20.11781 134.8873,1.12351 269.669,-7.61878 403.9243,-20.25825 259.9113,-24.506508 522.5952,-42.587967 782.8223,-12.4288 92.8029,11.55107 186.1322,26.85886 273.7052,60.91518 67.4962,26.08647 131.272,65.83055 176.6204,123.09434 62.8278,-13.97362 127.3055,-18.11655 191.397,-22.04884 37.0299,-1.50971 74.0948,-2.84388 111.1599,-1.01817 -4.5981,-10.568 -8.459,-21.41688 -11.9689,-32.40617 38.8549,15.69401 80.4127,24.36606 122.1811,26.85884 35.2748,0.70221 70.9356,1.50972 105.1576,10.95419 104.7018,-20.39868 205.2264,-57.43933 305.0843,-94.16399 47.0684,-17.13349 94.0312,-34.96918 142.7492,-47.01179 99.2612,-24.26074 201.506,-33.740348 303.3993,-37.075753 273.1087,-8.075213 544.9537,26.683303 817.7111,32.897723 92.7679,1.15861 185.957,0.3862 277.9524,-13.06078 74.0247,-10.883993 148.1196,-29.843188 213.3345,-67.621141 z"
     fill="#0a0a0a"
     id="path85"
     style="stroke-width:3.51046" />
  <path
     d="m 1978.3785,114.94889 c 169.6705,-5.93352 341.026,-4.70467 508.2747,28.05261 60.4412,12.00747 120.4963,27.31528 177.9189,49.85567 61.2134,24.54163 114.1784,66.67317 156.0521,117.1608 26.1489,30.51028 47.9106,64.42615 73.5332,95.32263 14.5311,16.74728 30.361,33.56479 51.0696,42.58795 13.3728,6.38997 28.4306,7.44327 43.0319,7.44327 -11.8988,-6.00377 -24.4291,-10.98935 -34.8538,-19.45075 19.5505,-5.72288 40.2943,-7.68901 58.7917,-16.88774 -19.9014,1.93103 -40.0485,2.84387 -59.8798,0.0352 -22.3581,-0.73729 -34.2218,-22.85635 -44.7165,-39.56853 58.9669,14.28962 116.2843,-13.69275 175.0407,-14.32475 -26.0437,-14.25447 -56.8961,-9.76047 -85.3266,-10.53288 -25.5875,2.31724 -51.3856,1.47462 -76.7976,-1.86079 -12.7762,-1.8608 -24.7451,-7.26772 -34.889,-15.09717 14.777,-3.75671 30.1155,-4.59934 45.0328,-8.04009 71.1816,-14.39494 140.854,-39.18231 214.1766,-40.41118 12.6358,-0.0352 25.2364,0 37.8723,0.21074 -2.5973,-6.2495 -5.0893,-12.53412 -7.4059,-18.85386 64.4775,18.50277 133.6234,4.84514 197.6095,25.84069 13.2675,5.47708 17.4797,20.46889 21.2704,32.96794 -7.1252,-7.75924 -14.7419,-15.13227 -23.7624,-20.60937 6.2476,11.12976 11.5126,22.89149 13.6534,35.56605 10.2845,-0.21073 20.2878,4.45892 30.5717,2.45768 24.5699,-4.77489 49.8763,0 73.8493,5.93352 16.1808,4.84515 33.6953,12.3586 41.6278,28.36857 5.6511,11.3404 1.7201,24.15545 0.4916,36.02249 -11.4073,-17.1686 -33.52,-21.38177 -51.9471,-14.11408 -12.4958,7.30282 -25.8333,-0.94795 -39.0305,-0.49151 -32.8532,-0.316 -63.6706,15.20247 -88.837,35.28516 -5.5804,5.126 -15.0925,4.52914 -18.462,12.14792 7.7217,13.65764 19.0939,-7.09213 30.0801,-3.96738 41.9439,2.4928 84.5547,11.05955 126.1123,0.21073 -4.177,10.35735 -12.706,18.29213 -23.3764,21.48711 -53.1403,20.04757 -110.5982,0.59686 -165.2128,10.35734 -33.6602,6.98683 -59.7391,30.89644 -87.538,49.43434 -21.8668,15.6238 -45.4889,29.63253 -71.9537,35.7416 4.8789,-8.07523 16.2509,-14.85137 14.6013,-25.20873 -9.7575,-2.70339 -19.3047,2.03638 -28.2902,5.16113 -17.5496,6.60063 -32.6775,17.76548 -48.8933,26.85887 30.1855,-33.00305 64.969,-63.37289 106.1405,-81.77032 -16.0756,-2.84386 -31.835,3.47586 -45.9803,10.46266 -30.08,15.16737 -57.0015,36.05761 -87.9589,49.6099 -35.0294,16.50155 -74.7269,19.45075 -112.8097,15.76423 -15.8298,-2.66835 -34.0465,-6.95172 -42.049,-22.57549 26.8159,4.31848 54.7901,8.42629 81.4305,0.80751 21.7968,-5.86329 41.1014,-19.0645 56.1942,-35.63627 -34.3623,17.87082 -75.4637,27.66639 -113.4061,16.25578 22.5337,-5.61754 44.4358,-14.00877 64.3723,-26.05137 -51.2452,1.40439 -101.6128,-16.29084 -144.2937,-43.887 -26.149,-16.53664 -49.4552,-37.07576 -71.6028,-58.56286 -23.1307,-24.64726 -44.6114,-51.04968 -71.0061,-72.36124 -56.9665,-46.97666 -124.989,-78.39976 -194.6965,-101.36146 -140.6083,-45.11585 -289.1139,-58.7384 -436.0401,-62.00359 -33.0636,-1.0533 -66.3028,-1.50971 -99.3314,0.21066 -135.4134,0.70219 -269.9495,17.20372 -404.6962,28.29834 -116.7406,9.19874 -233.9726,15.72911 -351.0643,10.63822 -95.8214,-5.1611 -193.3978,-15.65889 -282.72576,-52.83998 -11.79341,-5.23133 -24.21866,-9.69025 -34.32725,-17.97612 115.93341,29.17609 236.35961,32.8626 355.31131,32.8275 126.5685,-0.73731 252.9615,-9.26895 379.0737,-19.90715 99.4015,-8.91786 198.7329,-19.06453 298.5207,-22.89149 17.1284,-1.05328 34.3273,-0.45641 51.4556,-2.14168 z m 1888.9804,24.89273 c 99.6121,-19.48584 201.2951,-24.4714 302.522,-26.15667 131.6226,-0.31598 263.07,7.16237 394.4121,15.34291 59.6338,3.82695 119.3026,7.58368 179.007,10.53288 143.3808,7.16238 287.6046,11.83196 430.6695,-2.87898 37.7319,-3.54608 74.9023,-11.34041 112.3183,-16.95796 -68.4789,33.63503 -145.101,45.11587 -220.1788,53.26131 -84.3437,8.42631 -169.1439,10.14668 -253.8037,9.58493 -183.3593,0.77242 -366.5785,-14.64071 -549.9024,-6.24952 -87.6784,4.28338 -175.3218,12.7799 -261.5259,29.9134 -76.8675,14.50027 -151.8049,37.5673 -226.0052,62.0387 -77.5695,28.71967 -154.9638,58.38732 -234.534,81.27878 -34.0114,-27.80683 -79.7813,-30.61559 -121.6899,-33.9159 -3.3343,-9.02316 -7.3359,-17.76546 -12.0039,-26.12154 66.4781,-15.97489 130.2186,-41.39426 194.3805,-64.74215 87.4676,-32.01998 174.3739,-67.76159 266.3344,-84.93019 z"
     fill="#fbfbfb"
     id="path87"
     style="stroke-width:3.51046" />
  <path
     d="m 1890.3492,201.56434 c 35.0291,-8.21564 71.0062,-14.39495 107.0884,-12.85012 -19.4802,14.74605 -43.1021,22.2595 -66.0922,29.4921 -31.449,8.77739 -66.3029,14.7109 -97.3658,1.36926 17.8304,-8.60186 37.3458,-12.85012 56.3696,-18.01124 z m 174.2334,-3.44075 c 39.0308,-13.27144 80.448,-4.42381 120.5314,-2.91408 -24.9556,10.25199 -51.9822,16.5015 -79.0087,16.71217 -14.6715,-1.05327 -30.0801,-3.86206 -41.5227,-13.79809 z m -482.0202,17.97613 c 74.2002,-5.79308 148.2248,-13.65765 222.4952,-18.50276 -14.8118,5.58243 -30.5365,8.0752 -45.875,11.65639 -91.5744,19.55607 -184.4474,32.75726 -277.6363,41.46446 -90.381,7.65392 -181.4641,11.55105 -271.9152,2.84388 -52.1928,-5.4771 -105.1228,-13.44698 -153.5951,-34.3372 47.9107,5.72287 96.1024,9.72536 144.3992,9.72536 127.4809,2.98432 255.1025,-1.50971 382.1272,-12.85013 z m 589.7052,13.37678 c 28.7466,-9.76047 57.7738,-19.20496 87.8189,-24.0501 33.2392,-2.07147 65.9869,6.24951 98.6643,11.09464 -41.1716,13.83319 -81.9922,34.12655 -126.4983,32.47641 -21.4456,-0.21066 -42.2596,-7.68901 -59.9849,-19.52095 z m 2115.6876,-22.92661 c 45.3836,-2.45766 91.925,-5.5473 136.3262,6.49531 9.1609,2.28211 18.2867,4.66957 27.4124,7.44322 -17.4091,9.93605 -38.3987,6.84637 -57.5276,6.70594 -35.9069,-3.08964 -72.5155,-7.33792 -106.211,-20.64447 z m 182.5169,-0.28086 c 78.8332,0.87775 157.7368,4.88027 236.6051,6.07399 52.4737,3.26519 105.088,2.91409 157.5964,5.37176 77.5348,-0.0701 155.4553,1.29907 232.4636,-9.58493 -33.906,17.73037 -72.6909,22.75105 -110.072,28.08769 -90.8022,10.4627 -182.4818,8.32099 -273.5997,3.86207 -81.3958,-6.38994 -164.6515,-8.74229 -242.9934,-33.81058 z m -2554.9565,57.2638 c 39.2762,-17.8708 77.4994,-38.37482 118.4955,-52.13779 13.3378,13.8683 32.9233,18.11656 51.4556,19.02943 -39.8025,16.08018 -79.6405,34.82872 -122.9181,38.83122 -15.9,1.7555 -31.9053,-0.73731 -47.033,-5.72286 z m 2247.0995,-48.59171 c 29.5889,-3.65141 61.0731,-7.5837 89.4685,4.07271 21.7615,8.39121 43.7689,16.46642 64.8636,26.50776 l -0.2468,2.03636 c -24.5696,7.54857 -50.5432,2.10658 -75.0777,-2.80878 -27.3425,-6.95171 -53.632,-17.55481 -79.0089,-29.80805 z m -115.8983,15.79932 c 27.6584,-4.35361 57.247,-9.12849 84.0631,1.86082 31.5897,13.30653 62.6174,27.94725 92.943,44.02746 -12.6352,5.75797 -26.9559,4.24826 -40.3288,3.23007 -48.5427,-5.65262 -94.7336,-24.68205 -136.6773,-49.11835 z M 1470.2794,299.9064 c 105.3334,-9.97114 209.0521,-33.2137 309.6822,-65.61988 5.4404,-3.40565 9.8277,2.247 14.3557,4.38869 15.5138,10.18181 34.327,12.7448 52.2631,15.51846 -26.746,11.09464 -54.9308,18.18677 -82.8348,25.73534 -84.4493,20.64447 -170.7235,36.23313 -257.8753,36.82999 -14.8471,-1.36926 -29.9398,0 -44.6466,-2.77366 -6.1775,-5.79309 2.1411,-14.81624 9.0557,-14.07894 z m 818.9395,-23.20745 c 33.52,-15.37803 68.5141,-27.59618 104.2454,-36.72469 28.1496,-3.82693 56.8258,0.52666 84.0279,8.14544 -36.1875,15.97488 -71.7432,34.51277 -110.2472,44.30833 -26.2544,4.21316 -58.5809,6.03887 -78.0261,-15.72908 z m -281.7431,31.94976 c 44.2956,-22.18931 88.3102,-45.08077 133.0971,-66.3572 20.1472,17.48459 45.6994,28.05258 72.4452,29.10587 -32.3265,17.94104 -67.6014,30.26449 -103.2976,39.49833 -33.3443,7.30279 -70.304,13.37677 -102.2447,-2.247 z m 1940.2958,-57.47446 c 31.5895,-7.02194 67.5313,-9.4445 96.2076,8.21563 22.7443,12.67458 46.4363,24.19054 67.2152,40.02498 -11.723,2.31723 -23.6922,4.98555 -35.6257,3.15986 -46.4718,-4.56426 -89.8194,-25.10337 -127.7971,-51.40047 z m 467.9807,-0.21066 c 21.4102,-6.95169 44.2952,-4.73981 66.5131,-5.19624 29.9399,-0.84261 58.4755,9.37427 87.7135,14.14919 52.0174,10.04135 104.7366,15.93976 157.5262,20.08271 18.9887,2.563 38.6094,0.84261 57.2121,6.35483 -34.4325,10.2169 -70.7253,8.3561 -106.1407,7.16235 -59.8096,-3.6514 -119.338,-11.23506 -178.2699,-22.04882 -28.4657,-5.61756 -57.1418,-10.884 -84.5543,-20.50402 z m -58.1247,18.22191 c 5.5105,-1.96617 10.9511,1.26393 16.3912,2.42254 46.4368,14.46516 93.47,26.75352 140.3274,39.77918 -28.3252,9.90093 -59.1424,7.65394 -88.4154,4.35361 -46.4713,-5.89842 -91.0126,-21.76796 -134.22,-39.18234 22.218,2.59811 44.6113,-0.87774 65.9168,-7.37299 z m -507.6429,9.40936 c 31.5544,-10.884 69.5669,-13.23633 98.2782,6.35485 21.7617,15.02691 44.12,29.42187 63.8108,47.1522 -31.3436,13.30656 -66.4782,2.84387 -95.0842,-12.32347 -22.7798,-13.02566 -44.6465,-27.52595 -67.0048,-41.18358 z m -2179.7439,73.16845 c 69.7074,-17.06328 137.4844,-41.4996 202.4885,-71.90452 18.6729,16.15046 44.8571,20.01248 68.7598,20.22317 -75.1829,35.28516 -155.9116,60.38854 -238.9568,66.84871 -17.4797,0.8075 -35.2048,2.77365 -52.4386,-0.94796 4.1067,-7.82944 11.5125,-12.81499 20.1471,-14.2194 z m 800.8633,-58.59797 c 16.9882,-6.07396 33.9061,-15.30779 52.5789,-13.62252 23.8676,1.72036 46.612,10.6031 67.7419,21.45196 -37.3807,15.2376 -74.6564,31.17738 -113.336,42.76353 -30.4664,6.31975 -66.8293,10.07646 -92.5922,-11.12974 26.9563,-16.25577 56.51,-27.63128 85.6074,-39.46323 z m -352.2577,69.86815 c 43.4531,-22.3297 86.5902,-45.2563 130.289,-67.09449 20.3576,18.25702 47.279,26.12156 74.0246,28.36858 -44.2603,21.45199 -90.4159,41.14849 -139.6605,46.97667 -21.6915,1.54483 -45.0325,2.77366 -64.6531,-8.25076 z m 2068.5139,-58.63308 c 24.6045,3.30033 50.0516,2.4928 73.6737,-5.86329 42.2244,17.62502 85.186,33.70525 126.3577,53.78793 -42.8212,9.97114 -88.2748,2.24702 -128.3936,-14.43006 -23.6921,-11.58617 -48.3317,-21.17109 -71.6378,-33.49458 z m -435.6189,5.8633 c 32.0807,-7.54855 68.3739,-10.95419 98.0324,6.31974 22.7797,16.22065 45.2085,33.1786 66.1626,51.78671 -25.4471,8.8125 -53.6672,5.47709 -78.026,-5.0909 -31.1333,-13.44697 -58.7913,-33.35415 -86.169,-53.01555 z m 319.58,18.01128 c 24.5346,5.19622 49.4203,-1.50974 73.2878,-6.38997 40.2238,18.43254 80.5882,37.39177 117.6533,61.72272 -43.1371,13.69275 -89.4336,-0.28089 -128.113,-20.57425 -20.9543,-11.55107 -42.7511,-21.69774 -62.8281,-34.7585 z"
     fill="#fbfbfb"
     id="path89"
     style="stroke-width:3.51046" />
  <path
     d="m 3355.0478,324.55335 c 8.1078,4.38869 12.9167,11.90217 14.0049,20.96044 -2.9487,1.40439 -5.8617,2.80879 -8.7048,4.24826 1.3336,-8.88275 -1.8604,-17.23883 -5.3001,-25.2087 z"
     fill="#0a0a0a"
     id="path91"
     style="stroke-width:3.51046" />
  <path
     d="m 1790.702,404.21707 c 63.6353,-18.257 124.287,-45.15098 183.5699,-74.29196 24.2887,18.78365 56.9663,23.06704 86.836,22.92661 -65.9518,34.23188 -138.5373,54.77097 -211.7899,66.14652 -24.6747,2.66832 -49.7711,6.9166 -74.516,2.94918 1.9655,-8.28584 6.8794,-16.22062 15.9,-17.73035 z m 806.725,-63.93462 c 27.4477,-12.49903 59.1424,-1.36926 81.571,16.32598 -30.5014,15.41312 -61.389,30.29962 -93.0134,43.25504 -29.9048,8.63699 -66.689,10.25204 -91.6797,-11.3053 31.765,-20.8902 68.0578,-33.88077 103.1221,-48.27572 z"
     fill="#fbfbfb"
     id="path93"
     style="stroke-width:3.51046" />
  <path
     d="m 3246.5555,335.05112 c 29.0974,-3.44075 58.7566,-0.91285 87.5028,4.21317 14.3556,1.01816 16.2161,17.37922 13.6889,28.50899 -4.3174,-0.1403 -8.5994,-0.31598 -12.8113,-0.49152 -11.8988,15.20248 -25.1314,31.24756 -44.8222,35.98736 0.1051,-5.23132 7.1605,-15.51845 -1.6144,-17.48458 -11.232,-1.93104 -23.5867,-0.63198 -33.9411,3.86203 2.7027,-5.33664 9.3715,-6.60058 13.8643,-10.14665 9.4767,-5.0558 12.4953,-16.11532 15.7242,-25.52472 -5.1946,-15.97487 -23.6917,-16.99305 -37.5912,-18.92408 z"
     fill="#0a0a0a"
     id="path95"
     style="stroke-width:3.51046" />
  <path
     d="m 3660.6585,347.09372 c 27.939,-7.12724 61.459,-13.16609 86.2742,5.54732 20.2172,16.57174 39.8379,34.05632 57.7036,53.15596 -0.2102,6.21443 -9.2662,3.40566 -13.303,4.84513 -51.8767,4.49404 -94.1717,-31.66887 -130.6748,-63.54841 z m -366.473,33.31905 c -9.2312,-8.60188 -5.8619,-23.48834 0.1389,-33.03817 5.0191,0.17552 10.1085,0.316 15.268,0.45643 -0.7018,5.19624 -4.0363,10.46266 -2.2111,15.72913 1.1933,8.21565 10.2841,10.25199 16.0755,14.50024 -8.8801,4.07273 -20.4981,9.97117 -29.2729,2.35237 z m -1059.7216,40.48139 c 38.0478,-22.50529 75.3935,-46.20426 113.6168,-68.49887 19.6908,16.81749 44.8219,26.36732 70.4444,28.96543 -47.9808,27.35039 -101.9286,50.97915 -158.3685,46.69579 -9.0205,-0.38621 -17.4443,-3.89717 -25.6927,-7.16235 z m 1737.3158,-57.05315 c 24.8855,5.33668 49.9463,-0.0352 74.2704,-5.12599 39.1005,21.34665 79.1491,42.20175 112.9498,71.55339 -0.105,0.80755 -0.3157,2.38747 -0.3861,3.15986 -27.0968,8.56678 -56.089,2.21192 -81.9572,-7.44322 -21.937,-7.82945 -40.9256,-21.59241 -60.6869,-33.56481 -14.7066,-9.54981 -30.1856,-17.97612 -44.19,-28.57923 z m -401.7832,17.83568 c 28.2902,-2.80877 60.5467,-7.58367 85.3972,9.69027 18.427,16.0802 35.8362,33.45948 52.4384,51.43559 -53.8778,10.42757 -102.1394,-24.89271 -137.8356,-61.12586 z m -1642.7227,75.94213 c 55.9133,-20.36358 109.3346,-46.7309 163.4228,-71.37785 26.9564,15.83441 59.4936,20.04758 90.3109,20.39868 -54.0181,28.89523 -113.336,47.04691 -173.0753,59.86192 -30.5717,6.10907 -61.8451,10.25199 -93.0837,8.42629 -0.351,-7.96988 4.7034,-15.20246 12.4253,-17.30904 z m 1940.1905,-57.22868 c 24.7448,5.4771 50.2623,2.07144 74.2353,-5.40689 41.4524,25.63002 83.2556,51.57601 118.9517,85.07062 -33.5199,13.37677 -71.9539,4.45893 -102.5955,-12.28838 -32.1512,-19.73161 -59.985,-45.46695 -90.5915,-67.37535 z m -1190.2565,9.58492 c 23.2359,-11.09466 51.7718,-2.9141 70.1637,13.76297 -33.5549,17.34418 -69.0757,35.91716 -107.8955,34.96919 -14.5312,0.21073 -28.6061,-4.56425 -41.1013,-11.76173 25.3767,-14.14917 52.1576,-25.48957 78.8331,-36.97043 z m -328.1092,63.23245 c 34.9941,-20.99557 69.4968,-42.79865 105.0876,-62.84624 19.4451,16.50152 44.0147,25.41936 69.181,28.26322 -31.7299,17.55484 -66.4081,29.4921 -101.7884,37.04068 -23.7974,4.35357 -49.8761,8.81249 -72.4802,-2.45766 z m 1424.9308,-32.02 c 21.9726,5.12601 44.3305,-0.14029 65.8817,-4.91532 43.1022,28.68453 84.4845,60.73963 121.9706,96.58656 -29.1676,6.74104 -60.6871,4.45891 -87.6785,-8.81251 -39.1358,-18.573 -68.6897,-51.18985 -100.3492,-79.76907 0.034,-0.77241 0.1391,-2.31724 0.176,-3.08966 z m -1709.9732,68.70954 c 48.7883,-20.29337 95.7161,-44.79989 143.311,-67.62113 23.9025,16.57171 53.9127,20.74979 82.3432,21.10089 -54.6849,29.59738 -115.0207,47.95973 -176.1991,58.17663 -19.9364,2.73855 -40.0484,5.61755 -60.1954,4.00251 0.8423,-6.67084 3.6854,-13.58742 10.7403,-15.6589 z m 694.4772,-48.02995 c 16.5668,-8.3561 36.433,-4.70472 52.2278,3.72162 l -0.2808,2.91407 c -31.2735,21.06578 -72.5503,41.07827 -109.6507,22.47017 17.7957,-12.28839 38.2937,-19.80182 57.7037,-29.10586 z m -292.4484,56.03494 c 30.7821,-16.95794 60.8273,-35.39049 92.557,-50.48762 19.2696,11.93726 40.7505,20.4338 63.4599,22.85636 -28.0796,13.72785 -57.7386,24.40116 -88.3453,30.75602 -22.2881,3.96739 -46.4366,6.38994 -67.6716,-3.12476 z m 1201.6283,-50.17165 c 22.8147,8.28588 47.7706,9.69024 71.5327,4.95046 41.2418,33.74035 84.4843,66.21674 118.355,107.75143 -35.2396,5.79309 -74.5508,2.28211 -102.9465,-21.38177 -32.3264,-27.06949 -58.0542,-60.80984 -86.9412,-91.32012 z m -82.6941,10.28712 c 17.4093,4.88023 35.31,7.6539 53.4213,7.96989 35.6961,41.9911 73.1825,83.10448 101.9639,130.29179 -28.3603,4.31849 -59.3883,-1.5448 -80.378,-22.22438 -33.7653,-32.23065 -51.8769,-76.32831 -75.0072,-116.0373 z m -78.9034,6.81126 c 14.6363,4.81002 29.7291,8.04011 44.9271,10.49777 24.2187,44.37857 49.5605,88.58157 66.7238,136.29559 -26.1488,1.08839 -52.1576,-12.28839 -65.776,-34.75856 -21.6914,-34.37231 -31.9405,-74.22174 -45.8749,-112.0348 z M 2208.034,548.72829 c 37.6266,-17.51972 74.5161,-36.61934 111.3003,-55.82431 18.7079,12.46393 41.8384,14.32472 63.4948,17.23884 -49.2445,24.92781 -102.3499,42.69329 -157.1752,49.99609 -7.8973,0.91284 -15.9,1.72038 -23.7622,0.38622 -3.7207,-4.77491 2.3164,-9.58493 6.1423,-11.79684 z m 630.8769,-50.94406 c 15.4788,-4.45893 31.8702,-0.31598 46.5066,5.26646 -23.4112,17.06327 -56.8609,33.5999 -84.1684,15.16732 12.1095,-7.51344 24.2538,-15.378 37.6618,-20.43378 z m 600.6213,9.83068 c 10.4244,-1.54482 20.7084,-4.00247 30.9223,-6.84639 11.618,41.78049 24.7805,83.13959 36.5036,124.88493 -18.1114,-3.33538 -36.2578,-12.815 -44.5413,-30.05383 -13.5483,-27.42059 -16.3564,-58.45751 -22.8846,-87.98471 z m -149.3479,7.44323 a 131.06122,131.09934 0 0 1 32.9228,-6.31972 c 1.8606,29.70273 3.8611,59.44061 6.5989,89.10824 -14.5311,-6.53041 -27.4827,-17.90592 -33.3794,-32.93285 -6.3182,-15.79931 -6.5287,-33.10834 -6.1423,-49.85567 z m 76.0251,-5.93353 c 10.1087,0.49155 20.2873,0.59691 30.4664,0.84265 6.8795,35.63627 12.6007,71.5183 18.7078,107.295 -15.8999,-7.33789 -31.6949,-17.83569 -38.3284,-34.82871 -9.0907,-23.2426 -9.3014,-48.73218 -10.8458,-73.30894 z m -783.0328,49.78548 c 26.3947,-16.74732 53.0702,-33.1786 80.2022,-48.76727 18.357,11.23506 39.6272,16.39618 60.8623,18.53788 -43.102,21.45196 -92.2414,41.2538 -141.0645,30.22939 z m -235.6576,13.02567 c 29.8347,-11.30531 58.6512,-25.27893 88.0645,-37.56731 15.2683,8.35608 32.1862,12.81502 49.4199,14.74605 -45.7345,20.67955 -95.716,34.79361 -146.224,33.56479 0.9126,-4.95046 3.2992,-9.72538 8.7396,-10.74353 z m 868.0086,-7.02195 c 12.3899,-8.63693 24.6398,-17.51968 37.3809,-25.70021 0.4913,20.39866 2.2463,40.72714 2.3167,61.16095 -15.3735,-9.16362 -29.5891,-20.53913 -39.6976,-35.46074 z m -520.6296,28.15793 c 23.5516,-16.57173 46.7876,-33.74034 71.4624,-48.59171 17.3391,5.37177 34.7135,12.56925 53.4564,11.23506 -30.4312,18.92408 -63.916,34.89899 -99.8578,39.14725 -8.4239,1.33417 -16.8477,-0.31598 -25.061,-1.7906 z m 117.0566,22.71592 c 17.69,-15.02692 36.3278,-28.96543 55.071,-42.6933 13.443,7.51346 28.5007,11.55105 43.839,12.92036 -29.0973,18.50276 -63.4596,35.63624 -98.91,29.77294 z m -375.6341,45.36164 c 40.3995,-26.85886 79.7811,-55.22744 119.9348,-82.43742 24.2888,10.00624 50.5783,14.74607 77.0081,15.06206 -40.5397,29.35164 -85.0108,54.98167 -133.9745,66.77852 -20.6735,4.95042 -42.3298,6.14418 -62.9684,0.59684 z m 479.1422,-9.58494 c 31.1684,-27.52592 70.8306,-49.22367 113.5116,-47.71395 22.5337,0.17552 49.2446,4.98556 62.5824,25.24381 19.164,28.29836 12.5653,69.3064 -11.4426,92.75961 -16.8127,17.09839 -41.1365,25.03317 -64.7234,25.73536 -37.3808,1.19373 -75.8497,2.38746 -110.8788,16.95794 -0.5618,-2.10657 -1.6849,-6.24952 -2.2467,-8.32099 -42.6457,20.29339 -84.3087,48.59173 -106.9829,91.35527 -7.9325,13.1661 -10.3894,28.78991 -18.7781,41.67508 -9.0556,-10.95416 -2.6325,-25.31401 -1.1935,-37.70772 7.722,-41.42933 32.7829,-76.74965 60.6868,-107.22479 31.6246,-33.59989 68.9354,-62.67068 111.476,-81.033 -10.5299,-4.31849 -21.2352,-8.14543 -32.0108,-11.72662 z m -247.2754,-39.14722 c 24.359,13.02567 52.3684,5.96863 78.4823,5.40687 -36.714,31.24759 -77.3942,60.28324 -124.5327,72.99293 -19.7609,5.89844 -40.61,4.45892 -60.8975,3.82693 36.9245,-25.73533 70.234,-56.21051 106.9479,-82.22673 z"
     fill="#fbfbfb"
     id="path97"
     style="stroke-width:3.51046" />
  <path
     d="m 3120.9697,626.42589 c 24.8503,-6.98683 53.1405,-4.03761 74.2705,11.48086 16.1106,11.34039 25.7979,32.30084 21.1649,51.85688 -4.9492,20.89025 -21.6213,37.00556 -40.1189,46.69583 -32.3964,17.23881 -70.2336,19.59113 -106.2105,18.01122 10.9861,-6.63574 23.3059,-11.55106 32.3265,-20.96046 26.9915,-27.38551 35.7311,-72.29071 18.5675,-107.08433 z m -429.8974,93.14583 c 34.4324,-25.13851 65.1093,-54.94656 99.0855,-80.71701 8.9854,3.37051 18.3219,6.17926 27.9742,7.05702 15.6194,0.52666 30.9928,-4.88025 46.542,-3.9674 -33.169,30.65072 -70.8659,58.56287 -114.4243,72.22052 -19.0238,6.53037 -39.3464,5.86328 -59.1774,5.40687 z m -479.5984,94.69064 c 63.6702,-42.30709 127.2352,-84.75464 190.3791,-127.79903 28.4305,16.99308 63.5651,10.91909 94.5929,6.56551 -52.8246,41.71021 -108.6679,79.66374 -165.915,115.01913 -34.5378,22.32972 -83.2206,29.14097 -119.057,6.21439 z m 125.6559,49.78546 c 69.0404,-43.29018 132.7457,-94.33957 195.8546,-145.70496 28.8166,14.92161 62.9683,12.56926 93.7154,5.93355 -12.5305,13.5523 -27.7287,24.22564 -41.5577,36.33844 -46.2611,37.42689 -91.5393,78.32958 -147.1718,101.32636 -31.6246,13.06082 -69.4268,18.57298 -100.8405,2.10661 z m 157.9122,21.73281 c 57.0715,-45.99356 114.0379,-92.16272 168.7228,-141.00021 27.8689,11.72662 58.6512,7.72411 87.573,3.05452 -31.9756,29.80809 -64.618,58.98418 -96.5935,88.86247 -28.22,26.85887 -63.8458,46.37979 -102.3499,53.26133 -19.0591,2.70335 -39.3115,3.65142 -57.3524,-4.17811 z m 141.0293,14.14924 c 51.9471,-48.76729 103.5083,-97.99097 156.2978,-145.8805 -14.11,28.15789 -28.6061,56.56157 -35.3101,87.59851 -15.1278,13.97362 -28.8165,29.91339 -46.6823,40.51647 -22.1125,13.51724 -48.5774,18.92412 -74.3054,17.76552 z m 550.6045,-64.32086 c -8.0377,-9.86581 4.0012,-26.85886 16.0407,-22.78615 11.4071,5.40691 19.7958,15.27269 28.9918,23.73411 7.9678,8.74228 18.5677,17.62502 18.4977,30.58048 1.439,18.29215 -11.4776,33.31903 -25.5175,43.25502 2.4219,-12.81491 4.2473,-27.245 -2.9482,-38.93655 -9.0908,-14.28962 -24.4293,-22.92655 -35.0645,-35.84691 z m -198.2064,6.03887 c -8.88,-11.79686 7.8273,-29.94853 20.0418,-20.57423 15.5139,11.12973 29.6239,24.82249 40.7505,40.41117 9.898,20.99552 -5.2299,44.16792 -22.7444,55.64867 3.7906,-14.99174 3.7206,-32.12527 -6.4584,-44.65941 -9.4769,-11.37546 -22.3584,-19.31026 -31.5895,-30.8262 z m 74.7619,-0.94796 c -5.335,-7.93478 0.8073,-17.66015 7.9324,-21.9084 13.3378,-2.59812 22.3932,9.40936 31.6598,16.81749 11.0563,10.84888 27.1318,21.38175 26.0085,38.90147 0.7023,17.20371 -11.4775,31.21242 -24.2887,41.00801 1.7199,-11.3053 3.51,-23.41814 -1.6848,-34.12657 -7.9326,-18.0112 -27.9743,-25.77042 -39.6272,-40.692 z m 60.4412,-1.86082 c -7.8976,-11.76173 9.161,-28.57921 20.6384,-19.62628 15.4789,11.12975 29.5538,24.82252 40.6452,40.41119 9.8979,20.92532 -4.8437,43.57111 -22.2881,55.087 1.5089,-12.6044 3.7907,-26.33225 -2.8432,-37.95353 -8.9855,-15.30778 -25.6576,-23.87454 -36.1523,-37.91838 z m -198.3821,6.03884 c -4.5277,-9.79558 2.773,-21.38174 13.3029,-22.22441 12.9516,3.12477 21.4457,14.67584 31.0979,23.10216 8.1433,9.33915 20.2525,18.08145 20.2525,31.70395 1.1582,18.257 -11.1616,34.12656 -25.7629,43.60622 1.6144,-10.95425 4.4575,-22.85631 -0.3863,-33.42439 -7.3356,-18.57298 -27.1668,-27.24506 -38.5041,-42.76353 z m -60.8271,1.19375 c -2.4921,-8.11032 0.7722,-19.16987 10.0385,-20.92534 10.6351,-2.03636 18.2868,7.02194 25.8682,12.85012 10.1439,9.47959 21.9019,18.15167 28.5007,30.68578 6.9848,20.11781 -5.1596,41.60493 -22.1127,52.41865 1.0532,-11.41058 3.0537,-23.66386 -2.3517,-34.33716 -8.5642,-17.73038 -28.641,-25.24382 -39.943,-40.69205 z"
     fill="#fbfbfb"
     id="path99"
     style="stroke-width:3.51046" />
  <path
     d="m 1037.3984,1038.4021 c 81.2901,-10.0063 165.95,7.6892 235.868,50.5229 69.0405,41.7802 123.234,107.9972 148.7513,184.7117 21.7967,64.6367 20.7789,135.0315 6.1775,201.0728 -16.0405,72.7822 -54.8604,141.1055 -112.2129,189.1355 -49.2445,41.7803 -111.0545,67.4808 -174.7949,76.4336 -63.6355,8.7775 -129.7626,3.862 -190.23901,-18.5028 -66.33781,-24.1203 -124.88367,-69.6224 -163.87911,-128.5713 -46.05044,-68.2882 -65.8465,-152.4109 -61.73989,-234.1812 4.00135,-81.033 40.22394,-159.2573 97.4009,-216.486 56.86103,-57.8957 134.18497,-94.7257 214.66811,-104.1352 z m 1330.5135,0.1055 c 68.6544,-8.5318 139.836,2.3173 202.4534,31.9146 59.2127,27.7015 110.9143,71.8343 146.4346,126.8511 35.2048,53.788 54.5095,118.1439 53.4565,182.5348 0.3511,74.7133 -19.8311,150.1639 -61.4238,212.5889 -32.5723,48.7672 -77.8857,89.1785 -130.7103,114.8786 -66.2678,33.1083 -142.6792,42.9742 -215.7912,33.9159 -69.4969,-8.6017 -136.7825,-37.6024 -188.9403,-84.6493 -54.0531,-47.9245 -90.8022,-113.8605 -106.8426,-184.0446 -12.0391,-54.5253 -14.8821,-111.7889 -2.5972,-166.4898 16.5316,-75.275 60.722,-143.5984 121.0929,-191.2423 52.1927,-41.9208 116.4598,-68.2881 182.868,-76.2579 z m 1072.1816,16.1855 c 107.8256,-37.8131 233.5517,-19.0997 324.8452,49.8556 14.8119,10.884 28.3953,23.3127 41.5929,36.128 -38.3285,38.0586 -75.9198,76.8899 -114.8804,114.2816 -35.8717,-37.3565 -87.6081,-59.1596 -139.415,-57.7552 -43.6988,0.1755 -86.7658,16.9578 -119.9695,45.1509 -48.8234,40.5868 -75.4641,106.4876 -67.4262,169.5796 5.7913,52.6995 34.7133,102.2742 77.4996,133.4866 40.9609,30.4051 94.4875,43.3605 144.7851,34.4777 61.6695,-10.1817 116.1441,-52.8047 142.0472,-109.542 -60.1956,-0.07 -120.391,-0.037 -180.5866,0 -0.07,-51.26 0,-102.4849 -0.033,-153.7451 h 358.8915 c -1.4039,43.4307 3.7908,87.1772 -3.7906,130.2216 -11.8639,74.1867 -47.9807,144.4059 -102.0692,196.5788 -64.4426,64.2857 -154.9289,101.186 -245.9067,100.8349 -91.1178,0.7021 -181.6392,-36.1629 -246.3976,-100.238 -40.9611,-39.4633 -71.5328,-89.3188 -89.4332,-143.2473 -24.4294,-75.3803 -23.2359,-159.0466 4.0714,-233.4789 35.5556,-98.3773 117.0915,-178.9537 216.177,-212.5888 z M 43.979567,1735.3281 c -0.280794,-231.1617 -0.245683,-462.3234 0,-693.4502 53.245808,0.07 106.456533,-0.07 159.702323,0.036 46.12065,70.2543 91.99559,140.6492 138.25661,210.7629 46.26103,-70.2542 92.17105,-140.7192 138.67779,-210.7982 53.0001,0.036 106.00025,-0.037 159.03545,0.036 0.0352,231.1266 0.07,462.2533 0,693.38 h -162.2997 c -0.2458,-136.3307 0.4914,-272.6614 -0.35096,-408.9921 -44.89218,70.6756 -90.24064,141.0704 -134.92218,211.8865 -45.59415,-70.1139 -89.7843,-141.1055 -135.06254,-211.395 -1.61459,136.1201 -0.24569,272.3104 -0.702,408.4653 -54.12329,0.1054 -108.211505,-0.07 -162.334793,0.07 z M 1472.4555,1200.749 c -0.1405,-52.9803 -0.2105,-105.9256 0.034,-158.906 175.4619,0.037 350.8888,0.07 526.3157,0 0.4563,52.8751 -0.1755,105.7851 0.3508,158.6954 -59.7392,0.4915 -119.4783,0.07 -179.2174,0.2107 -0.1055,178.2166 0.2457,356.3978 -0.1755,534.6143 -56.0888,-0.1404 -112.2127,-0.07 -168.3016,-0.037 -0.2108,-178.2163 -0.034,-356.3977 -0.1054,-534.5792 z m 2542.0401,-158.8358 c 56.1941,-0.037 112.3885,-0.037 168.5826,0 0.033,161.7501 -0.1052,323.5351 0.07,485.2851 -0.9476,25.1034 21.5862,47.2576 46.6123,46.3799 46.682,0.1757 93.4346,0.1757 140.1518,0.035 23.7974,1.0534 46.647,-18.7484 47.2437,-42.904 0.21,-162.9437 -0.1389,-325.8875 0.176,-488.8313 56.4751,0.07 112.9502,-0.1052 169.4248,0.07 -0.034,167.6133 -0.07,335.2267 0.033,502.8048 1.4389,55.7893 -24.1835,111.4028 -67.1803,146.8636 -32.783,27.9123 -75.534,43.185 -118.4956,43.536 -49.069,0.3161 -98.1732,0.037 -147.2772,0.1403 -41.4171,-0.2456 -84.7652,3.3004 -123.6553,-14.0438 -66.4782,-26.5079 -114.3186,-94.2342 -115.7229,-165.9631 0.1049,-171.1244 0,-342.2487 0.033,-513.373 z m 699.3558,0 c 164.9673,-0.07 329.9345,-0.037 494.9018,0 -0.07,54.771 0.1051,109.6122 -0.07,164.4183 -95.3648,122.006 -189.5368,244.9598 -284.5157,367.2818 94.8735,0.1406 189.7122,0.07 284.5861,0.036 v 161.6448 c -166.1256,-0.037 -332.2863,0 -498.4116,0 v -166.3148 c 93.8911,-122.7081 187.8167,-245.4164 281.5672,-368.2298 h -278.0573 z m 622.839,158.7305 c 0.3512,-52.9454 -0.1049,-105.8555 0.2471,-158.7658 164.9322,0.036 329.8992,-0.036 494.8666,0.036 -0.1761,54.2794 0.4213,108.5589 -0.281,162.8032 -32.1157,44.1329 -66.7241,86.5804 -99.7174,130.1164 -61.3538,79.6285 -123.0587,158.9763 -184.1667,238.7804 94.7334,0.1755 189.4315,-0.069 284.1649,0.1407 -0.07,53.8579 0.176,107.7163 -0.1051,161.5744 -166.0906,-0.07 -332.181,-0.07 -498.2363,0 -0.4211,-51.7866 0.033,-103.5734 -0.247,-155.3599 0.105,-5.4772 -0.7022,-11.6918 3.6505,-15.9047 92.6273,-121.0581 185.0788,-242.2565 277.8819,-363.2443 -92.6977,-0.2455 -185.36,0.1054 -278.0577,-0.1755 z m 619.6802,-158.7658 c 55.2817,0.036 110.5281,-0.036 165.8097,0.036 0.034,231.1266 0.034,462.2533 0,693.3448 -55.2816,0.07 -110.528,0 -165.8097,0.037 z"
     fill="#0a0a0a"
     id="path101"
     style="stroke-width:3.51046" />
  <path
     d="m 1047.7175,1196.6062 c 45.2081,-8.6018 93.1538,0.7372 132.4301,24.5766 50.8239,30.4051 88.4856,84.4738 93.5399,144.1602 3.0888,47.5735 -9.3363,96.1653 -35.6257,136.0147 -24.5346,36.7247 -61.2837,65.8306 -103.9998,78.0839 -45.3484,13.6927 -96.067,8.7773 -137.7651,-13.8333 -53.17564,-27.6664 -90.02998,-81.6299 -101.78833,-139.8417 -7.79203,-36.9704 -6.87948,-76.7145 8.2835,-111.789 24.88548,-59.9322 81.3254,-105.1533 144.92543,-117.3714 z m 1330.5837,0.2456 c 44.4008,-8.6721 91.7148,-0.4916 130.8156,22.1542 50.6134,28.6845 88.3102,81.0682 95.0843,139.35 5.4053,54.2091 -9.5119,110.6658 -42.7862,154.061 -27.6933,36.7951 -69.181,63.3378 -114.6696,71.4482 -51.2454,10.0062 -106.3162,-4.0025 -147.0668,-36.514 -47.7352,-37.2514 -75.3581,-96.9377 -78.0609,-156.9399 -6.7042,-92.1979 67.9523,-176.9877 156.6836,-193.5595 z"
     fill="#fbfbfb"
     id="path103"
     style="stroke-width:3.51046" />
</svg>
